<?xml version="1.0" encoding="UTF-8" standalone="no"?>
<svg
   xmlns:dc="http://purl.org/dc/elements/1.1/"
   xmlns:cc="http://creativecommons.org/ns#"
   xmlns:rdf="http://www.w3.org/1999/02/22-rdf-syntax-ns#"
   xmlns:svg="http://www.w3.org/2000/svg"
   xmlns="http://www.w3.org/2000/svg"
   xmlns:sodipodi="http://sodipodi.sourceforge.net/DTD/sodipodi-0.dtd"
   xmlns:inkscape="http://www.inkscape.org/namespaces/inkscape"
   viewBox="0 0 597.50402 537.62044"
   version="1.1"
   id="svg58"
   sodipodi:docname="itch-io.svg"
   inkscape:version="1.0.2 (e86c870879, 2021-01-15)"
   width="448.12802pt"
   height="403.21533pt">
  <metadata
     id="metadata64">
    <rdf:RDF>
      <cc:Work
         rdf:about="">
        <dc:format>image/svg+xml</dc:format>
        <dc:type
           rdf:resource="http://purl.org/dc/dcmitype/StillImage" />
        <dc:title></dc:title>
      </cc:Work>
    </rdf:RDF>
  </metadata>
  <defs
     id="defs62">
    <filter
       style="color-interpolation-filters:sRGB"
       inkscape:label="Drop Shadow"
       id="filter462">
      <feFlood
         flood-opacity="0.498039"
         flood-color="rgb(0,0,255)"
         result="flood"
         id="feFlood452" />
      <feComposite
         in="flood"
         in2="SourceGraphic"
         operator="in"
         result="composite1"
         id="feComposite454" />
      <feGaussianBlur
         in="composite1"
         stdDeviation="10"
         result="blur"
         id="feGaussianBlur456" />
      <feOffset
         dx="6"
         dy="6"
         result="offset"
         id="feOffset458" />
      <feComposite
         in="SourceGraphic"
         in2="offset"
         operator="over"
         result="composite2"
         id="feComposite460" />
    </filter>
    <filter
       style="color-interpolation-filters:sRGB"
       inkscape:label="Drop Shadow"
       id="filter1104">
      <feFlood
         flood-opacity="0.498039"
         flood-color="rgb(0,0,255)"
         result="flood"
         id="feFlood1094" />
      <feComposite
         in="flood"
         in2="SourceGraphic"
         operator="in"
         result="composite1"
         id="feComposite1096" />
      <feGaussianBlur
         in="composite1"
         stdDeviation="60"
         result="blur"
         id="feGaussianBlur1098" />
      <feOffset
         dx="30"
         dy="30"
         result="offset"
         id="feOffset1100" />
      <feComposite
         in="SourceGraphic"
         in2="offset"
         operator="over"
         result="composite2"
         id="feComposite1102" />
    </filter>
    <filter
       style="color-interpolation-filters:sRGB"
       inkscape:label="Drop Shadow"
       id="filter188">
      <feFlood
         flood-opacity="0.498039"
         flood-color="rgb(0,0,255)"
         result="flood"
         id="feFlood178" />
      <feComposite
         in="flood"
         in2="SourceGraphic"
         operator="in"
         result="composite1"
         id="feComposite180" />
      <feGaussianBlur
         in="composite1"
         stdDeviation="60"
         result="blur"
         id="feGaussianBlur182" />
      <feOffset
         dx="30"
         dy="30"
         result="offset"
         id="feOffset184" />
      <feComposite
         in="SourceGraphic"
         in2="offset"
         operator="over"
         result="composite2"
         id="feComposite186" />
    </filter>
    <filter
       style="color-interpolation-filters:sRGB"
       inkscape:label="Drop Shadow"
       id="filter147">
      <feFlood
         flood-opacity="0.498039"
         flood-color="rgb(0,0,255)"
         result="flood"
         id="feFlood137" />
      <feComposite
         in="flood"
         in2="SourceGraphic"
         operator="in"
         result="composite1"
         id="feComposite139" />
      <feGaussianBlur
         in="composite1"
         stdDeviation="60"
         result="blur"
         id="feGaussianBlur141" />
      <feOffset
         dx="30"
         dy="30"
         result="offset"
         id="feOffset143" />
      <feComposite
         in="SourceGraphic"
         in2="offset"
         operator="over"
         result="composite2"
         id="feComposite145" />
    </filter>
    <filter
       style="color-interpolation-filters:sRGB"
       inkscape:label="Drop Shadow"
       id="filter189">
      <feFlood
         flood-opacity="0.498039"
         flood-color="rgb(0,0,255)"
         result="flood"
         id="feFlood179" />
      <feComposite
         in="flood"
         in2="SourceGraphic"
         operator="in"
         result="composite1"
         id="feComposite181" />
      <feGaussianBlur
         in="composite1"
         stdDeviation="60"
         result="blur"
         id="feGaussianBlur183" />
      <feOffset
         dx="30"
         dy="30"
         result="offset"
         id="feOffset185" />
      <feComposite
         in="SourceGraphic"
         in2="offset"
         operator="over"
         result="composite2"
         id="feComposite187" />
    </filter>
  </defs>
  <sodipodi:namedview
     pagecolor="#161925"
     bordercolor="#666666"
     borderopacity="1"
     objecttolerance="10"
     gridtolerance="10"
     guidetolerance="10"
     inkscape:pageopacity="0"
     inkscape:pageshadow="2"
     inkscape:window-width="1366"
     inkscape:window-height="743"
     id="namedview60"
     showgrid="false"
     inkscape:pagecheckerboard="true"
     units="pt"
     inkscape:zoom="0.77754125"
     inkscape:cx="636.00338"
     inkscape:cy="230.35131"
     inkscape:window-x="0"
     inkscape:window-y="25"
     inkscape:window-maximized="1"
     inkscape:current-layer="svg58"
     fit-margin-top="0"
     fit-margin-left="0"
     fit-margin-right="0"
     fit-margin-bottom="0"
     inkscape:document-rotation="0" />
  <!-- Font Awesome Free 5.15.4 by @fontawesome - https://fontawesome.com License - https://fontawesome.com/license/free (Icons: CC BY 4.0, Fonts: SIL OFL 1.1, Code: MIT License) -->
  <path
     d="m 114.712,47.571704 c -21.720004,12.9 -64.52,62.069996 -64.92,74.959996 v 21.34 c 0,27.06 25.29,50.84 48.249996,50.84 27.570004,0 50.540004,-22.85 50.540004,-50 0,27.12 22.18,50 49.76,50 27.58,0 49,-22.85 49,-50 0,27.12 23.59,50 51.16,50 h 0.5 c 27.57,0 51.16,-22.85 51.16,-50 0,27.12 21.47,50 49,50 27.53,0 49.76,-22.85 49.76,-50 0,27.12 23,50 50.54,50 23,0 48.25,-23.78 48.25,-50.84 v -21.34 c -0.4,-12.9 -43.2,-62.069996 -64.92,-74.999996 -67.44,-2.33 -114.24,-2.73 -184,-2.73 -69.76,0 -164.86,1.1 -184.08,2.77 z M 247.032,181.9617 c -22,38.4 -77.9,38.71 -99.85,0.25 -13.17,23.14 -43.17,32.07 -56.000004,27.66 -3.87,40.15 -13.669996,237.13 17.730004,269.15 80,18.67 302.08,18.12 379.76,0 31.65,-32.27 21.32,-232 17.75,-269.15 -12.92,4.44 -42.88,-4.6 -56,-27.66 -22,38.52 -77.85,38.1 -99.85,-0.24 -7.1,12.49 -23.05,28.94 -51.76,28.94 a 57.54,57.54 0 0 1 -51.75,-28.94 z m -41.58,53.77 c 16.47,0 31.09,0 49.22,19.78 a 436.91,436.91 0 0 1 88.18,0 c 18.16,-19.71 32.79,-19.71 49.25,-19.71 52.33,0 65.22,77.53 83.87,144.45 17.26,62.15 -5.52,63.67 -33.95,63.73 -42.15,-1.57 -65.49,-32.18 -65.49,-62.79 -39.25,6.43 -101.93,8.79 -155.55,0 0,30.61 -23.34,61.22 -65.49,62.79 -28.42,-0.06 -51.2,-1.58 -33.94,-63.73 18.67,-67 31.56,-144.45 83.88,-144.45 z m 93.34,47.86 c 0,0 -44.38,40.77 -52.35,55.21 l 29,-1.17 v 25.32 c 0,1.55 21.34,0.16 23.33,0.16 11.65,0.54 23.31,1 23.31,-0.16 v -25.28 l 29,1.17 c -8,-14.48 -52.35,-55.24 -52.35,-55.24 z"
     id="path167"
     style="fill:#ffffff;filter:url(#filter189);stroke:#4e4da9;stroke-opacity:1;stroke-width:1.3333333;stroke-dasharray:none" />
</svg>
